<svg viewBox="0 0 503 114" fill="none" xmlns="http://www.w3.org/2000/svg">
<g clip-path="url(#clip0_13_1001)">
<path d="M94.8347 18.5788C93.9957 10.3285 100.009 2.91716 108.259 2.07815C116.509 1.23913 123.781 7.25209 124.62 15.5024C125.459 23.7528 119.446 31.0242 111.196 31.8633" stroke="#F34E7A" stroke-width="4.30907" stroke-miterlimit="10" stroke-linecap="round" stroke-linejoin="round"/>
<path d="M32.7474 31.7234C24.6369 30.1852 19.3231 22.3544 20.8613 14.2439C22.3995 6.13337 30.2304 0.819599 38.3409 2.3578C46.4514 3.896 51.7651 11.7268 50.2269 19.8373" stroke="#F34E7A" stroke-width="4.30907" stroke-miterlimit="10" stroke-linecap="round" stroke-linejoin="round"/>
<path d="M109.238 85.2805C101.966 97.5861 87.7031 105.557 71.9016 104.718C59.1765 104.019 48.1294 97.8658 41.2774 88.7764" stroke="#F34E7A" stroke-width="4.30907" stroke-miterlimit="10" stroke-linecap="round"/>
<path d="M56.2399 82.9035C53.0237 82.9035 50.3668 80.2466 50.3668 77.0304V68.6402C50.3668 65.424 53.0237 62.7671 56.2399 62.7671C59.4561 62.7671 62.113 65.424 62.113 68.6402V77.0304" stroke="#F34E7A" stroke-width="4.30907" stroke-miterlimit="10" stroke-linecap="round"/>
<path d="M91.6185 82.0646C94.8347 82.0646 97.4916 79.4077 97.4916 76.1915V67.8013C97.4916 64.5851 94.8347 61.9282 91.6185 61.9282C88.4023 61.9282 85.7454 64.5851 85.7454 67.8013V76.1915" stroke="#F34E7A" stroke-width="4.30907" stroke-miterlimit="10" stroke-linecap="round"/>
<path d="M68.8251 91.4335L73.9991 86.2595" stroke="#F34E7A" stroke-width="4.30907" stroke-miterlimit="10" stroke-linecap="round"/>
<path d="M79.0332 91.4335L73.9991 86.2595" stroke="#F34E7A" stroke-width="4.30907" stroke-miterlimit="10" stroke-linecap="round"/>
<path d="M56.2399 73.6744C59.0202 73.6744 61.274 71.4206 61.274 68.6403C61.274 65.86 59.0202 63.6062 56.2399 63.6062C53.4597 63.6062 51.2058 65.86 51.2058 68.6403C51.2058 71.4206 53.4597 73.6744 56.2399 73.6744Z" stroke="#F34E7A" stroke-width="4.30907" stroke-miterlimit="10" stroke-linecap="round"/>
<path d="M91.6185 71.9964C94.3987 71.9964 96.6526 69.7426 96.6526 66.9623C96.6526 64.1821 94.3987 61.9282 91.6185 61.9282C88.8382 61.9282 86.5844 64.1821 86.5844 66.9623C86.5844 69.7426 88.8382 71.9964 91.6185 71.9964Z" stroke="#F34E7A" stroke-width="4.30907" stroke-miterlimit="10" stroke-linecap="round"/>
<path d="M57.2188 34.7998C58.4773 46.1265 67.0073 55.2159 78.4739 56.1947C76.0966 51.8598 77.6348 46.4062 80.2917 42.6306C81.2706 45.4273 83.0885 47.9444 85.186 49.7623C87.4234 51.72 89.9404 52.9785 92.877 53.6777C94.555 54.0972 97.2119 53.6777 98.4704 54.6565C99.3095 55.3557 100.009 56.8939 100.708 57.8728C101.966 59.6906 102.945 61.6483 103.924 63.7459C106.581 69.3393 108.399 75.3523 109.098 81.5051C110.077 90.8741 107.979 100.383 103.365 108.633C114.552 103.04 119.306 88.7766 120.145 77.31C120.704 68.9198 119.586 60.5296 117.628 52.2793C122.942 55.7752 131.612 53.8175 137.205 52.2793C132.451 51.3005 127.836 49.3427 123.781 46.9655C119.726 44.5883 116.09 41.6518 113.013 38.1559C111.335 36.1981 109.797 34.1006 108.539 32.0031C107.979 30.8844 107.56 29.7657 106.721 28.647C104.064 24.8714 99.5891 21.795 95.5339 19.6975C87.1437 15.0829 77.495 13.8244 68.126 15.5024C65.3293 16.0617 62.5325 16.9007 59.7358 17.4601C57.9179 17.8796 56.1001 18.2991 54.1424 18.8585C47.8497 20.8162 41.6969 23.7527 36.6628 28.2275C33.5864 30.8844 30.9296 34.1006 29.1117 37.7363C28.1328 39.6941 27.2938 41.6518 26.5946 43.7493C25.8955 45.8468 25.8955 48.2241 25.1963 50.3216C24.3573 52.6988 22.2597 55.076 20.7215 57.0337C17.0858 61.089 12.7509 64.0256 7.57691 65.8434C6.45822 66.2629 3.6615 67.1019 5.75904 68.2206C7.99642 69.3393 11.6322 69.0597 14.0094 68.9198C19.3232 68.78 30.0905 68.0808 32.4678 61.928C26.8743 78.988 29.3914 99.9635 43.0953 112.409C40.0189 94.0903 40.7181 73.9539 46.0319 56.1947C47.0107 52.9785 47.7099 49.7623 48.4091 46.4062C49.8074 50.6013 53.4432 54.0972 57.2188 56.0549C56.7993 51.9996 56.2399 47.9444 55.8204 43.8891C55.5407 42.0713 55.4009 40.8127 55.9602 38.9949C56.3797 37.5965 56.7993 36.1981 57.2188 34.7998Z" stroke="#F34E7A" stroke-width="4.30907" stroke-miterlimit="10" stroke-linecap="round" stroke-linejoin="round"/>
<path d="M195.301 46.7948C194.961 40.5812 192.152 36.9212 185.683 36.9212C183.896 36.9212 182.363 37.1765 181.087 37.6872C177.171 39.4747 175.724 42.7943 175.724 46.8799C175.724 48.2418 175.895 49.5185 176.32 50.625C177.597 55.0511 181.427 56.6683 185.683 56.6683C192.152 56.6683 195.301 53.1785 195.301 46.7948ZM211.473 68.074H198.706C197.855 65.9461 197.089 63.8182 196.578 61.6051C193.684 66.3717 189.258 68.4996 183.81 68.4996C171.639 68.4996 162.957 58.2856 162.957 46.6245C162.957 33.1761 173.001 25.0899 185.683 25.0899C199.217 25.0899 207.728 33.7719 208.069 46.7948C208.154 47.9013 208.154 49.178 208.154 50.7101C208.154 56.6683 209.09 62.6265 211.473 68.074ZM261.686 46.7948V68.074H248.919V46.7948C248.919 40.9217 246.195 36.9212 239.981 36.9212C233.853 36.9212 231.044 41.0068 231.044 46.7948V68.074H218.276V46.7948C218.276 33.6868 227.299 25.0899 239.981 25.0899C253.174 25.0899 261.686 34.1123 261.686 46.7948ZM270.787 25.5155H283.555V68.074H270.787V25.5155ZM277.171 21.515C272.83 21.515 269.766 18.4508 269.766 14.1099C269.766 9.68377 272.83 6.78979 277.171 6.78979C281.597 6.78979 284.491 9.68377 284.491 14.1099C284.491 18.6211 281.682 21.515 277.171 21.515ZM362.282 45.0924V68.074H349.514V45.0924C349.514 40.2408 347.216 36.9212 342.109 36.9212C337.087 36.9212 334.619 40.3259 334.619 45.0924V68.074H321.851V45.0924C321.851 40.2408 319.383 36.9212 314.276 36.9212C309.254 36.9212 306.956 40.3259 306.956 45.0924V68.074H294.188V45.0924C294.188 32.7505 302.615 25.0899 314.446 25.0899C320.489 25.0899 325.171 27.8988 328.235 33.0909C331.299 27.8988 335.98 25.0899 342.024 25.0899C354.281 25.0899 362.282 33.1761 362.282 45.0924ZM391.896 56.6683C398.109 56.6683 401.684 53.0083 401.684 46.7948C401.684 40.5812 398.109 36.9212 391.896 36.9212C385.682 36.9212 382.107 40.5812 382.107 46.7948C382.107 53.0083 385.682 56.6683 391.896 56.6683ZM391.896 68.4996C378.788 68.4996 369.34 59.8177 369.34 46.7948C369.34 33.3463 379.128 25.0899 391.896 25.0899C405.089 25.0899 414.452 33.7719 414.452 46.7948C414.452 60.1581 404.578 68.4996 391.896 68.4996ZM434.959 46.7948V68.074H422.191V46.8799C422.191 32.7505 432.575 25.0899 445.683 25.0899C446.109 25.0899 446.705 25.0899 447.301 25.1751C447.896 25.2602 448.577 25.4304 449.173 25.5155V37.8575C448.748 37.7724 448.237 37.6873 447.641 37.6021C447.045 37.517 446.535 37.4319 446.109 37.4319C443.981 37.4319 442.279 37.6873 440.832 38.1128C438.448 38.964 436.321 40.5812 435.555 43.1347C435.129 44.2413 434.959 45.518 434.959 46.7948ZM486.278 46.7948C485.937 40.5812 483.128 36.9212 476.66 36.9212C474.872 36.9212 473.34 37.1765 472.063 37.6872C468.148 39.4747 466.701 42.7943 466.701 46.8799C466.701 48.2418 466.871 49.5185 467.297 50.625C468.573 55.0511 472.404 56.6683 476.66 56.6683C483.128 56.6683 486.278 53.1785 486.278 46.7948ZM502.45 68.074H489.683C488.831 65.9461 488.065 63.8182 487.555 61.6051C484.661 66.3717 480.235 68.4996 474.787 68.4996C462.615 68.4996 453.933 58.2856 453.933 46.6245C453.933 33.1761 463.977 25.0899 476.66 25.0899C490.193 25.0899 498.705 33.7719 499.045 46.7948C499.13 47.9013 499.13 49.178 499.13 50.7101C499.13 56.6683 500.067 62.6265 502.45 68.074Z" fill="#F34E7A"/>
<path d="M174.138 95.2364L169.903 101.95V108.12H167.219V102.013L162.957 95.2364H165.917L168.547 99.6232L171.187 95.2364L174.138 95.2364ZM182.972 108.299C179.182 108.299 176.382 105.713 176.382 101.674C176.382 97.626 179.182 95.0581 182.972 95.0581C186.752 95.0581 189.552 97.626 189.552 101.674C189.552 105.713 186.752 108.299 182.972 108.299ZM182.972 105.847C185.192 105.847 186.895 104.286 186.895 101.674C186.895 99.0704 185.192 97.519 182.972 97.519C180.751 97.519 179.048 99.0704 179.048 101.674C179.048 104.286 180.751 105.847 182.972 105.847ZM198.1 108.299C195.274 108.299 193.063 106.854 193.063 103.609V95.2364H195.738V103.243C195.738 105.205 196.781 105.936 198.1 105.936C199.429 105.936 200.481 105.196 200.481 103.243V95.2364H203.156V103.609C203.156 106.854 200.936 108.299 198.1 108.299ZM214.344 108.12L210.991 102.45H210.215V108.12H207.54V95.2364H212.213C215.128 95.2364 216.359 96.9573 216.359 99.0883C216.359 100.818 215.378 101.941 213.63 102.316L217.509 108.12L214.344 108.12ZM210.215 97.4566V100.533H211.794C213.22 100.533 213.8 99.9264 213.8 98.9991C213.8 98.0807 213.22 97.4566 211.794 97.4566L210.215 97.4566ZM231.128 108.299C228.364 108.299 226.207 106.97 225.814 104.554L228.578 103.921C228.757 105.365 229.818 106.114 231.235 106.114C232.323 106.114 233.188 105.633 233.179 104.545C233.17 103.332 231.744 102.949 230.174 102.468C228.284 101.879 226.26 101.184 226.26 98.8119C226.26 96.4134 228.222 95.0581 230.808 95.0581C233.072 95.0581 235.355 95.9765 235.872 98.4463L233.286 99.0883C233.046 97.8043 232.181 97.2426 230.968 97.2426C229.889 97.2426 228.971 97.6884 228.971 98.7495C228.971 99.7392 230.237 100.069 231.699 100.506C233.643 101.094 235.943 101.843 235.943 104.411C235.943 107.149 233.652 108.299 231.128 108.299ZM247.202 95.2364V97.5903H244.144V108.12H241.496V97.5903H238.42V95.2364H247.202ZM256.25 108.299C252.461 108.299 249.661 105.713 249.661 101.674C249.661 97.626 252.461 95.0581 256.25 95.0581C260.031 95.0581 262.83 97.626 262.83 101.674C262.83 105.713 260.031 108.299 256.25 108.299ZM256.25 105.847C258.47 105.847 260.173 104.286 260.173 101.674C260.173 99.0704 258.47 97.519 256.25 97.519C254.03 97.519 252.327 99.0704 252.327 101.674C252.327 104.286 254.03 105.847 256.25 105.847ZM273.412 108.12L270.059 102.45H269.284V108.12H266.609V95.2364H271.281C274.196 95.2364 275.427 96.9573 275.427 99.0883C275.427 100.818 274.446 101.941 272.698 102.316L276.577 108.12L273.412 108.12ZM269.284 97.4566V100.533H270.862C272.288 100.533 272.868 99.9264 272.868 98.9991C272.868 98.0807 272.288 97.4566 270.862 97.4566L269.284 97.4566ZM289.521 95.2364L285.286 101.95V108.12H282.602V102.013L278.34 95.2364H281.3L283.931 99.6232L286.57 95.2364L289.521 95.2364ZM302.989 108.299C300.225 108.299 298.068 106.97 297.675 104.554L300.439 103.921C300.618 105.365 301.679 106.114 303.096 106.114C304.184 106.114 305.049 105.633 305.04 104.545C305.031 103.332 303.605 102.949 302.035 102.468C300.145 101.879 298.121 101.184 298.121 98.8119C298.121 96.4134 300.083 95.0581 302.668 95.0581C304.933 95.0581 307.216 95.9765 307.733 98.4463L305.147 99.0883C304.906 97.8043 304.041 97.2426 302.829 97.2426C301.75 97.2426 300.832 97.6884 300.832 98.7495C300.832 99.7392 302.098 100.069 303.56 100.506C305.504 101.094 307.804 101.843 307.804 104.411C307.804 107.149 305.513 108.299 302.989 108.299ZM319.063 95.2364V97.5903H316.005V108.12H313.357V97.5903H310.281V95.2364H319.063ZM331.027 108.12L330.09 105.463H324.678L323.742 108.12H321.005L325.748 95.2364H329.02L333.764 108.12H331.027ZM325.463 103.225H329.306L327.389 97.7597L325.463 103.225ZM343.819 108.12L340.467 102.45H339.691V108.12H337.016V95.2364H341.688C344.604 95.2364 345.834 96.9573 345.834 99.0883C345.834 100.818 344.854 101.941 343.106 102.316L346.985 108.12L343.819 108.12ZM339.691 97.4566V100.533H341.269C342.696 100.533 343.275 99.9264 343.275 98.9991C343.275 98.0807 342.696 97.4566 341.269 97.4566L339.691 97.4566ZM357.735 95.2364V97.5903H354.677V108.12H352.029V97.5903H348.953V95.2364H357.735ZM365.357 108.299C362.592 108.299 360.435 106.97 360.042 104.554L362.806 103.921C362.985 105.365 364.046 106.114 365.464 106.114C366.551 106.114 367.416 105.633 367.407 104.545C367.398 103.332 365.972 102.949 364.402 102.468C362.512 101.879 360.488 101.184 360.488 98.8119C360.488 96.4134 362.45 95.0581 365.036 95.0581C367.3 95.0581 369.583 95.9765 370.1 98.4463L367.514 99.0883C367.274 97.8043 366.409 97.2426 365.196 97.2426C364.117 97.2426 363.199 97.6884 363.199 98.7495C363.199 99.7392 364.465 100.069 365.927 100.506C367.871 101.094 370.171 101.843 370.171 104.411C370.171 107.149 367.88 108.299 365.357 108.299ZM388.142 95.2364H390.817V108.12H388.142V102.824H382.694V108.12H380.019V95.2364H382.694V100.497H388.142V95.2364ZM402.941 97.5903H398.162V100.515H402.397V102.842H398.162V105.758H402.941V108.12H395.469V95.2364H402.941V97.5903ZM413.817 108.12L410.464 102.45H409.688V108.12H407.013V95.2364H411.686C414.601 95.2364 415.832 96.9573 415.832 99.0883C415.832 100.818 414.851 101.941 413.103 102.316L416.982 108.12L413.817 108.12ZM409.688 97.4566V100.533H411.267C412.693 100.533 413.273 99.9264 413.273 98.9991C413.273 98.0807 412.693 97.4566 411.267 97.4566L409.688 97.4566ZM427.733 97.5903H422.954V100.515H427.189V102.842H422.954V105.758H427.733V108.12H420.261V95.2364H427.733V97.5903ZM433.071 108.299C432.278 108.299 431.609 107.639 431.609 106.837C431.609 106.034 432.278 105.356 433.071 105.356C433.883 105.356 434.551 106.034 434.551 106.837C434.551 107.639 433.883 108.299 433.071 108.299Z" fill="#014A6C"/>
</g>
<defs>
<clipPath id="clip0_13_1001">
<rect width="502.45" height="113.409" fill="white"/>
</clipPath>
</defs>
</svg>
