<svg viewBox="0 0 143 115" fill="none" xmlns="http://www.w3.org/2000/svg">
<path d="M94.8346 18.7336C93.9956 10.4833 100.009 3.07195 108.259 2.23293C116.509 1.39391 123.781 7.40687 124.62 15.6572C125.459 23.9075 119.446 31.179 111.195 32.018" stroke="#F34E7A" stroke-width="4.30907" stroke-miterlimit="10" stroke-linecap="round" stroke-linejoin="round"/>
<path d="M32.7474 31.8782C24.6369 30.34 19.3231 22.5092 20.8613 14.3987C22.3995 6.28816 30.2304 0.974384 38.3409 2.51258C46.4514 4.05078 51.7651 11.8816 50.2269 19.9921" stroke="#F34E7A" stroke-width="4.30907" stroke-miterlimit="10" stroke-linecap="round" stroke-linejoin="round"/>
<path d="M109.238 85.4353C101.966 97.7409 87.7031 105.712 71.9016 104.873C59.1765 104.173 48.1294 98.0206 41.2775 88.9312" stroke="#F34E7A" stroke-width="4.30907" stroke-miterlimit="10" stroke-linecap="round"/>
<path d="M56.2399 83.0583C53.0237 83.0583 50.3668 80.4014 50.3668 77.1852V68.795C50.3668 65.5788 53.0237 62.9219 56.2399 62.9219C59.4562 62.9219 62.1131 65.5788 62.1131 68.795V77.1852" stroke="#F34E7A" stroke-width="4.30907" stroke-miterlimit="10" stroke-linecap="round"/>
<path d="M91.6185 82.2194C94.8347 82.2194 97.4916 79.5625 97.4916 76.3463V67.9561C97.4916 64.7399 94.8347 62.083 91.6185 62.083C88.4023 62.083 85.7454 64.7399 85.7454 67.9561V76.3463" stroke="#F34E7A" stroke-width="4.30907" stroke-miterlimit="10" stroke-linecap="round"/>
<path d="M68.8252 91.5882L73.9991 86.4143" stroke="#F34E7A" stroke-width="4.30907" stroke-miterlimit="10" stroke-linecap="round"/>
<path d="M79.0332 91.5882L73.9991 86.4143" stroke="#F34E7A" stroke-width="4.30907" stroke-miterlimit="10" stroke-linecap="round"/>
<path d="M56.2399 73.8292C59.0202 73.8292 61.274 71.5754 61.274 68.7951C61.274 66.0148 59.0202 63.761 56.2399 63.761C53.4597 63.761 51.2058 66.0148 51.2058 68.7951C51.2058 71.5754 53.4597 73.8292 56.2399 73.8292Z" stroke="#F34E7A" stroke-width="4.30907" stroke-miterlimit="10" stroke-linecap="round"/>
<path d="M91.6185 72.1512C94.3987 72.1512 96.6526 69.8974 96.6526 67.1171C96.6526 64.3369 94.3987 62.083 91.6185 62.083C88.8382 62.083 86.5844 64.3369 86.5844 67.1171C86.5844 69.8974 88.8382 72.1512 91.6185 72.1512Z" stroke="#F34E7A" stroke-width="4.30907" stroke-miterlimit="10" stroke-linecap="round"/>
<path d="M57.2188 34.9546C58.4773 46.2813 67.0073 55.3707 78.4739 56.3495C76.0966 52.0146 77.6348 46.561 80.2917 42.7854C81.2706 45.5821 83.0885 48.0992 85.186 49.917C87.4234 51.8747 89.9404 53.1333 92.877 53.8325C94.555 54.252 97.2119 53.8325 98.4704 54.8113C99.3095 55.5105 100.009 57.0487 100.708 58.0275C101.966 59.8454 102.945 61.8031 103.924 63.9007C106.581 69.4941 108.399 75.5071 109.098 81.6599C110.077 91.0289 107.979 100.538 103.365 108.788C114.552 103.195 119.306 88.9313 120.145 77.4648C120.704 69.0746 119.586 60.6844 117.628 52.4341C122.942 55.93 131.612 53.9723 137.205 52.4341C132.451 51.4552 127.836 49.4975 123.781 47.1203C119.726 44.7431 116.09 41.8065 113.013 38.3106C111.335 36.3529 109.797 34.2554 108.539 32.1578C107.979 31.0392 107.56 29.9205 106.721 28.8018C104.064 25.0262 99.5891 21.9498 95.5339 19.8523C87.1437 15.2377 77.495 13.9791 68.126 15.6572C65.3293 16.2165 62.5325 17.0555 59.7358 17.6149C57.9179 18.0344 56.1001 18.4539 54.1424 19.0132C47.8497 20.9709 41.6969 23.9075 36.6628 28.3823C33.5864 31.0392 30.9296 34.2554 29.1117 37.8911C28.1328 39.8488 27.2938 41.8065 26.5946 43.9041C25.8955 46.0016 25.8955 48.3788 25.1963 50.4764C24.3573 52.8536 22.2597 55.2308 20.7215 57.1885C17.0858 61.2438 12.7509 64.1803 7.57691 65.9982C6.45822 66.4177 3.6615 67.2567 5.75904 68.3754C7.99642 69.4941 11.6322 69.2144 14.0094 69.0746C19.3232 68.9348 30.0905 68.2356 32.4678 62.0828C26.8743 79.1428 29.3914 100.118 43.0953 112.564C40.0189 94.2451 40.7181 74.1087 46.0319 56.3495C47.0107 53.1333 47.7099 49.917 48.4091 46.561C49.8074 50.7561 53.4432 54.252 57.2188 56.2097C56.7993 52.1544 56.2399 48.0992 55.8204 44.0439C55.5407 42.2261 55.4009 40.9675 55.9602 39.1497C56.3797 37.7513 56.7993 36.3529 57.2188 34.9546Z" stroke="#F34E7A" stroke-width="4.30907" stroke-miterlimit="10" stroke-linecap="round" stroke-linejoin="round"/>
</svg>
