<svg viewBox="0 0 503 114" fill="none" xmlns="http://www.w3.org/2000/svg">
<g clip-path="url(#clip0_13_1106)">
<path d="M94.8346 18.5788C93.9956 10.3285 100.009 2.91716 108.259 2.07815C116.509 1.23913 123.781 7.25209 124.62 15.5024C125.459 23.7528 119.446 31.0242 111.195 31.8633" stroke="#F34E7A" stroke-width="4.30907" stroke-miterlimit="10" stroke-linecap="round" stroke-linejoin="round"/>
<path d="M32.7474 31.7234C24.6369 30.1852 19.3231 22.3544 20.8613 14.2439C22.3995 6.13337 30.2304 0.819599 38.3409 2.3578C46.4514 3.896 51.7651 11.7268 50.2269 19.8373" stroke="#F34E7A" stroke-width="4.30907" stroke-miterlimit="10" stroke-linecap="round" stroke-linejoin="round"/>
<path d="M109.238 85.2805C101.966 97.5861 87.7031 105.557 71.9016 104.718C59.1765 104.019 48.1294 97.8658 41.2775 88.7764" stroke="#F34E7A" stroke-width="4.30907" stroke-miterlimit="10" stroke-linecap="round"/>
<path d="M56.2399 82.9035C53.0237 82.9035 50.3668 80.2466 50.3668 77.0304V68.6402C50.3668 65.424 53.0237 62.7671 56.2399 62.7671C59.4562 62.7671 62.1131 65.424 62.1131 68.6402V77.0304" stroke="#F34E7A" stroke-width="4.30907" stroke-miterlimit="10" stroke-linecap="round"/>
<path d="M91.6185 82.0646C94.8347 82.0646 97.4916 79.4077 97.4916 76.1915V67.8013C97.4916 64.5851 94.8347 61.9282 91.6185 61.9282C88.4023 61.9282 85.7454 64.5851 85.7454 67.8013V76.1915" stroke="#F34E7A" stroke-width="4.30907" stroke-miterlimit="10" stroke-linecap="round"/>
<path d="M68.8252 91.4335L73.9991 86.2595" stroke="#F34E7A" stroke-width="4.30907" stroke-miterlimit="10" stroke-linecap="round"/>
<path d="M79.0332 91.4335L73.9991 86.2595" stroke="#F34E7A" stroke-width="4.30907" stroke-miterlimit="10" stroke-linecap="round"/>
<path d="M56.2399 73.6744C59.0202 73.6744 61.274 71.4206 61.274 68.6403C61.274 65.86 59.0202 63.6062 56.2399 63.6062C53.4597 63.6062 51.2058 65.86 51.2058 68.6403C51.2058 71.4206 53.4597 73.6744 56.2399 73.6744Z" stroke="#F34E7A" stroke-width="4.30907" stroke-miterlimit="10" stroke-linecap="round"/>
<path d="M91.6185 71.9964C94.3987 71.9964 96.6526 69.7426 96.6526 66.9623C96.6526 64.1821 94.3987 61.9282 91.6185 61.9282C88.8382 61.9282 86.5844 64.1821 86.5844 66.9623C86.5844 69.7426 88.8382 71.9964 91.6185 71.9964Z" stroke="#F34E7A" stroke-width="4.30907" stroke-miterlimit="10" stroke-linecap="round"/>
<path d="M57.2188 34.7998C58.4773 46.1265 67.0073 55.2159 78.4739 56.1947C76.0966 51.8598 77.6348 46.4062 80.2917 42.6306C81.2706 45.4273 83.0885 47.9444 85.186 49.7623C87.4234 51.72 89.9404 52.9785 92.877 53.6777C94.555 54.0972 97.2119 53.6777 98.4704 54.6565C99.3095 55.3557 100.009 56.8939 100.708 57.8728C101.966 59.6906 102.945 61.6483 103.924 63.7459C106.581 69.3393 108.399 75.3523 109.098 81.5051C110.077 90.8741 107.979 100.383 103.365 108.633C114.552 103.04 119.306 88.7766 120.145 77.31C120.704 68.9198 119.586 60.5296 117.628 52.2793C122.942 55.7752 131.612 53.8175 137.205 52.2793C132.451 51.3005 127.836 49.3427 123.781 46.9655C119.726 44.5883 116.09 41.6518 113.013 38.1559C111.335 36.1981 109.797 34.1006 108.539 32.0031C107.979 30.8844 107.56 29.7657 106.721 28.647C104.064 24.8714 99.5891 21.795 95.5339 19.6975C87.1437 15.0829 77.495 13.8244 68.126 15.5024C65.3293 16.0617 62.5325 16.9007 59.7358 17.4601C57.9179 17.8796 56.1001 18.2991 54.1424 18.8585C47.8497 20.8162 41.6969 23.7527 36.6628 28.2275C33.5864 30.8844 30.9296 34.1006 29.1117 37.7363C28.1328 39.6941 27.2938 41.6518 26.5946 43.7493C25.8955 45.8468 25.8955 48.2241 25.1963 50.3216C24.3573 52.6988 22.2597 55.076 20.7215 57.0337C17.0858 61.089 12.7509 64.0256 7.57691 65.8434C6.45822 66.2629 3.6615 67.1019 5.75904 68.2206C7.99642 69.3393 11.6322 69.0597 14.0094 68.9198C19.3232 68.78 30.0905 68.0808 32.4678 61.928C26.8743 78.988 29.3914 99.9635 43.0953 112.409C40.0189 94.0903 40.7181 73.9539 46.0319 56.1947C47.0107 52.9785 47.7099 49.7623 48.4091 46.4062C49.8074 50.6013 53.4432 54.0972 57.2188 56.0549C56.7993 51.9996 56.2399 47.9444 55.8204 43.8891C55.5407 42.0713 55.4009 40.8127 55.9602 38.9949C56.3797 37.5965 56.7993 36.1981 57.2188 34.7998Z" stroke="#F34E7A" stroke-width="4.30907" stroke-miterlimit="10" stroke-linecap="round" stroke-linejoin="round"/>
<path d="M195.344 66.005C195.004 59.7914 192.195 56.1314 185.726 56.1314C183.939 56.1314 182.407 56.3868 181.13 56.8975C177.215 58.6849 175.768 62.0045 175.768 66.0901C175.768 67.452 175.938 68.7287 176.363 69.8352C177.64 74.2613 181.47 75.8785 185.726 75.8785C192.195 75.8785 195.344 72.3887 195.344 66.005ZM211.517 87.2842H198.749C197.898 85.1563 197.132 83.0284 196.621 80.8153C193.727 85.5819 189.301 87.7098 183.854 87.7098C171.682 87.7098 163 77.4958 163 65.8347C163 52.3863 173.044 44.3001 185.726 44.3001C199.26 44.3001 207.772 52.9821 208.112 66.005C208.197 67.1115 208.197 68.3882 208.197 69.9203C208.197 75.8785 209.133 81.8367 211.517 87.2842ZM261.729 66.005V87.2842H248.962V66.005C248.962 60.1319 246.238 56.1314 240.024 56.1314C233.896 56.1314 231.087 60.217 231.087 66.005V87.2842H218.32V66.005C218.32 52.897 227.342 44.3001 240.024 44.3001C253.218 44.3001 261.729 53.3225 261.729 66.005ZM270.83 44.7257H283.598V87.2842H270.83V44.7257ZM277.214 40.7252C272.873 40.7252 269.809 37.661 269.809 33.3201C269.809 28.894 272.873 26 277.214 26C281.64 26 284.534 28.894 284.534 33.3201C284.534 37.8313 281.725 40.7252 277.214 40.7252ZM362.325 64.3026V87.2842H349.557V64.3026C349.557 59.451 347.259 56.1314 342.152 56.1314C337.13 56.1314 334.662 59.5361 334.662 64.3026V87.2842H321.894V64.3026C321.894 59.451 319.426 56.1314 314.319 56.1314C309.297 56.1314 306.999 59.5361 306.999 64.3026V87.2842H294.231V64.3026C294.231 51.9607 302.658 44.3001 314.489 44.3001C320.532 44.3001 325.214 47.109 328.278 52.3011C331.342 47.109 336.024 44.3001 342.067 44.3001C354.324 44.3001 362.325 52.3863 362.325 64.3026ZM391.939 75.8785C398.153 75.8785 401.728 72.2185 401.728 66.005C401.728 59.7914 398.153 56.1314 391.939 56.1314C385.726 56.1314 382.151 59.7914 382.151 66.005C382.151 72.2185 385.726 75.8785 391.939 75.8785ZM391.939 87.7098C378.831 87.7098 369.383 79.0279 369.383 66.005C369.383 52.5565 379.172 44.3001 391.939 44.3001C405.132 44.3001 414.495 52.9821 414.495 66.005C414.495 79.3683 404.622 87.7098 391.939 87.7098ZM435.002 66.005V87.2842H422.234V66.0901C422.234 51.9607 432.619 44.3001 445.727 44.3001C446.152 44.3001 446.748 44.3001 447.344 44.3853C447.94 44.4704 448.621 44.6406 449.216 44.7257V57.0677C448.791 56.9826 448.28 56.8975 447.684 56.8123C447.088 56.7272 446.578 56.6421 446.152 56.6421C444.024 56.6421 442.322 56.8975 440.875 57.323C438.492 58.1742 436.364 59.7914 435.598 62.3449C435.172 63.4515 435.002 64.7282 435.002 66.005ZM486.321 66.005C485.981 59.7914 483.172 56.1314 476.703 56.1314C474.915 56.1314 473.383 56.3868 472.107 56.8975C468.191 58.6849 466.744 62.0045 466.744 66.0901C466.744 67.452 466.914 68.7287 467.34 69.8352C468.617 74.2613 472.447 75.8785 476.703 75.8785C483.172 75.8785 486.321 72.3887 486.321 66.005ZM502.493 87.2842H489.726C488.875 85.1563 488.108 83.0284 487.598 80.8153C484.704 85.5819 480.278 87.7098 474.83 87.7098C462.659 87.7098 453.977 77.4958 453.977 65.8347C453.977 52.3863 464.02 44.3001 476.703 44.3001C490.236 44.3001 498.748 52.9821 499.089 66.005C499.174 67.1115 499.174 68.3882 499.174 69.9203C499.174 75.8785 500.11 81.8367 502.493 87.2842Z" fill="#F34E7A"/>
</g>
<defs>
<clipPath id="clip0_13_1106">
<rect width="502.45" height="113.409" fill="white"/>
</clipPath>
</defs>
</svg>
