<svg width="68" height="53" viewBox="0 0 68 53" fill="none" xmlns="http://www.w3.org/2000/svg">
<path d="M42.6809 8.43116C42.3033 4.71806 45.0095 1.38256 48.7226 1.00496C52.4357 0.627354 55.7082 3.33351 56.0858 7.04661C56.4634 10.7597 53.7573 14.0323 50.0442 14.4099" stroke="#F34E7A" stroke-width="1.93932" stroke-miterlimit="10" stroke-linecap="round" stroke-linejoin="round"/>
<path d="M14.7382 14.3469C11.088 13.6546 8.69653 10.1303 9.38881 6.48016C10.0811 2.82999 13.6054 0.438507 17.2555 1.13078C20.9057 1.82305 23.2972 5.34735 22.6049 8.99751" stroke="#F34E7A" stroke-width="1.93932" stroke-miterlimit="10" stroke-linecap="round" stroke-linejoin="round"/>
<path d="M49.163 38.4506C45.8905 43.9887 39.4712 47.576 32.3597 47.1984C26.6327 46.8837 21.6609 44.1146 18.5771 40.0239" stroke="#F34E7A" stroke-width="1.93932" stroke-miterlimit="10" stroke-linecap="round"/>
<path d="M25.3112 37.3807C23.8637 37.3807 22.668 36.1849 22.668 34.7375V30.9614C22.668 29.514 23.8637 28.3182 25.3112 28.3182C26.7587 28.3182 27.9544 29.514 27.9544 30.9614V34.7375" stroke="#F34E7A" stroke-width="1.93932" stroke-miterlimit="10" stroke-linecap="round"/>
<path d="M41.2333 37.0032C42.6808 37.0032 43.8765 35.8074 43.8765 34.3599V30.5839C43.8765 29.1364 42.6808 27.9407 41.2333 27.9407C39.7858 27.9407 38.5901 29.1364 38.5901 30.5839V34.3599" stroke="#F34E7A" stroke-width="1.93932" stroke-miterlimit="10" stroke-linecap="round"/>
<path d="M30.9751 41.2197L33.3037 38.8911" stroke="#F34E7A" stroke-width="1.93932" stroke-miterlimit="10" stroke-linecap="round"/>
<path d="M35.5693 41.2197L33.3037 38.8911" stroke="#F34E7A" stroke-width="1.93932" stroke-miterlimit="10" stroke-linecap="round"/>
<path d="M25.311 33.2271C26.5623 33.2271 27.5766 32.2127 27.5766 30.9615C27.5766 29.7102 26.5623 28.6958 25.311 28.6958C24.0598 28.6958 23.0454 29.7102 23.0454 30.9615C23.0454 32.2127 24.0598 33.2271 25.311 33.2271Z" stroke="#F34E7A" stroke-width="1.93932" stroke-miterlimit="10" stroke-linecap="round"/>
<path d="M41.2334 32.4719C42.4847 32.4719 43.499 31.4576 43.499 30.2063C43.499 28.955 42.4847 27.9407 41.2334 27.9407C39.9821 27.9407 38.9678 28.955 38.9678 30.2063C38.9678 31.4576 39.9821 32.4719 41.2334 32.4719Z" stroke="#F34E7A" stroke-width="1.93932" stroke-miterlimit="10" stroke-linecap="round"/>
<path d="M25.7515 15.7315C26.3179 20.8292 30.1569 24.9199 35.3175 25.3604C34.2476 23.4095 34.9399 20.955 36.1356 19.2558C36.5761 20.5145 37.3943 21.6473 38.3383 22.4655C39.3452 23.3465 40.478 23.9129 41.7997 24.2276C42.5549 24.4164 43.7506 24.2276 44.317 24.6681C44.6946 24.9828 45.0093 25.6751 45.324 26.1156C45.8904 26.9338 46.3309 27.8148 46.7714 28.7588C47.9672 31.2762 48.7853 33.9824 49.1 36.7514C49.5405 40.968 48.5965 45.2475 46.5197 48.9606C51.5544 46.4433 53.6942 40.024 54.0718 34.8634C54.3235 31.0874 53.82 27.3114 52.939 23.5983C55.3304 25.1716 59.2323 24.2905 61.7497 23.5983C59.6099 23.1577 57.5331 22.2767 55.708 21.2068C53.883 20.1369 52.2467 18.8153 50.8621 17.2419C50.1069 16.3609 49.4147 15.4169 48.8483 14.4728C48.5965 13.9694 48.4077 13.4659 48.0301 12.9624C46.8344 11.2632 44.8205 9.87868 42.9954 8.93467C39.2194 6.85785 34.8769 6.29144 30.6604 7.04665C29.4017 7.29839 28.143 7.67599 26.8843 7.92773C26.0662 8.11653 25.2481 8.30533 24.367 8.55706C21.535 9.43814 18.7659 10.7597 16.5002 12.7736C15.1157 13.9694 13.92 15.4169 13.1018 17.0531C12.6613 17.9342 12.2837 18.8153 11.969 19.7593C11.6543 20.7033 11.6543 21.7732 11.3397 22.7172C10.9621 23.7871 10.0181 24.8569 9.32578 25.738C7.6895 27.5631 5.73855 28.8847 3.41 29.7029C2.90652 29.8917 1.64785 30.2693 2.59185 30.7727C3.5988 31.2762 5.23508 31.1503 6.30495 31.0874C8.69644 31.0245 13.5423 30.7098 14.6122 27.9407C12.0949 35.6186 13.2277 45.0587 19.3952 50.6598C18.0107 42.4155 18.3253 33.353 20.7168 25.3604C21.1573 23.9129 21.472 22.4655 21.7867 20.955C22.416 22.8431 24.0523 24.4164 25.7515 25.2975C25.5627 23.4724 25.311 21.6473 25.1222 19.8222C24.9963 19.0041 24.9334 18.4377 25.1851 17.6195C25.3739 16.9902 25.5627 16.3609 25.7515 15.7315Z" stroke="#F34E7A" stroke-width="1.93932" stroke-miterlimit="10" stroke-linecap="round" stroke-linejoin="round"/>
<path d="M52 40.8148H60M56 36.8148V44.8148M66 40.8148C66 46.3376 61.5228 50.8148 56 50.8148C50.4772 50.8148 46 46.3376 46 40.8148C46 35.2919 50.4772 30.8148 56 30.8148C61.5228 30.8148 66 35.2919 66 40.8148Z" stroke="white" stroke-width="2" stroke-linecap="round" stroke-linejoin="round"/>
</svg>
