<svg preserveAspectRatio="none" width="100%" height="100%" overflow="visible" style="display: block;" viewBox="0 0 18 18.3677" fill="none" xmlns="http://www.w3.org/2000/svg">
<g id="Group">
<path id="Vector" d="M9.18364 7.51412V11.0708H14.1262C13.9091 12.2146 13.2578 13.1831 12.281 13.8343L15.2616 16.1469C16.9981 14.544 18 12.1896 18 9.39271C18 8.74151 17.9416 8.11529 17.833 7.51422L9.18364 7.51412Z" fill="var(--fill-0, #4285F4)"/>
<path id="Vector_2" d="M4.03679 10.9319L3.36457 11.4465L0.985096 13.2999C2.49624 16.2971 5.59345 18.3677 9.18344 18.3677C11.663 18.3677 13.7418 17.5495 15.2614 16.1469L12.2808 13.8342C11.4626 14.3853 10.419 14.7193 9.18344 14.7193C6.79567 14.7193 4.76695 13.1079 4.04055 10.9372L4.03679 10.9319Z" fill="var(--fill-0, #34A853)"/>
<path id="Vector_3" d="M0.985096 5.06788C0.358964 6.30346 0 7.69775 0 9.18382C0 10.6699 0.358964 12.0642 0.985096 13.2998C0.985096 13.3081 4.04084 10.9287 4.04084 10.9287C3.85717 10.3777 3.7486 9.79328 3.7486 9.18373C3.7486 8.57418 3.85717 7.98979 4.04084 7.43877L0.985096 5.06788Z" fill="var(--fill-0, #FBBC05)"/>
<path id="Vector_4" d="M9.18362 3.6569C10.5362 3.6569 11.7384 4.12443 12.6985 5.02612L15.3284 2.39625C13.7337 0.910179 11.6633 9.40561e-05 9.18362 9.40561e-05C5.59363 9.40561e-05 2.49624 2.06226 0.985096 5.06787L4.04074 7.43896C4.76705 5.26822 6.79586 3.6569 9.18362 3.6569Z" fill="var(--fill-0, #EA4335)"/>
</g>
</svg>
