<svg viewBox="0 0 164 37" fill="none" xmlns="http://www.w3.org/2000/svg">
  <!-- Mascot body -->
  <g transform="translate(0.937, 4.123)">
    <path d="M17.7476 7.23351C18.1584 10.9306 20.9426 13.8973 24.6853 14.2168C23.9094 12.8019 24.4114 11.0218 25.2786 9.7895C25.5981 10.7023 26.1915 11.5239 26.8761 12.1173C27.6064 12.7563 28.428 13.1671 29.3865 13.3953C29.9342 13.5322 30.8014 13.3953 31.2122 13.7148C31.486 13.943 31.7142 14.445 31.9425 14.7645C32.3532 15.3579 32.6727 15.9969 32.9922 16.6815C33.8594 18.5072 34.4528 20.4699 34.681 22.4781C35.0005 25.5362 34.3159 28.6399 32.8097 31.3328C36.4611 29.5071 38.0129 24.8516 38.2868 21.1089C38.4694 18.3703 38.1042 15.6318 37.4652 12.9388C39.1996 14.0799 42.0295 13.4409 43.8552 12.9388C42.3033 12.6193 40.7971 11.9803 39.4735 11.2044C38.1499 10.4285 36.9631 9.47 35.959 8.32893C35.4113 7.68994 34.9092 7.0053 34.4984 6.32066C34.3159 5.95552 34.1789 5.59038 33.9051 5.22523C33.0379 3.99288 31.5773 2.98875 30.2537 2.30411C27.5151 0.797901 24.3658 0.387117 21.3077 0.934829C20.3949 1.1174 19.482 1.39126 18.5692 1.57383C17.9758 1.71075 17.3825 1.84768 16.7435 2.03025C14.6895 2.66925 12.6813 3.62774 11.0381 5.08831C10.034 5.95552 9.16679 7.0053 8.57343 8.19201C8.25394 8.831 7.98008 9.47 7.75187 10.1546C7.52366 10.8393 7.52366 11.6152 7.29544 12.2998C7.02159 13.0758 6.33695 13.8517 5.83488 14.4907C4.64817 15.8143 3.23325 16.7728 1.54447 17.3662C1.17933 17.5031 0.266479 17.777 0.951119 18.1421C1.6814 18.5072 2.86811 18.416 3.64403 18.3703C5.37845 18.3247 8.89293 18.0965 9.66886 16.0882C7.84315 21.6566 8.66472 28.503 13.1377 32.5652C12.1336 26.586 12.3618 20.0134 14.0962 14.2168C14.4157 13.1671 14.6439 12.1173 14.8721 11.0218C15.3285 12.3911 16.5153 13.5322 17.7476 14.1712C17.6107 12.8476 17.4281 11.5239 17.2912 10.2003C17.1999 9.60693 17.1542 9.19614 17.3368 8.60279C17.4737 8.14636 17.6107 7.68994 17.7476 7.23351Z" stroke="#F34E7A" stroke-width="1.40648" stroke-miterlimit="10" stroke-linecap="round" stroke-linejoin="round"/>
  </g>
  <!-- Mascot ears -->
  <g transform="translate(6.021, -0.052)">
    <path d="M24.9348 6.11466C24.6609 3.42175 26.6236 1.00269 29.3165 0.728835C32.0094 0.454979 34.3828 2.41761 34.6567 5.11053C34.9305 7.80344 32.9679 10.1769 30.275 10.4507" stroke="#F34E7A" stroke-width="1.40648" stroke-miterlimit="10" stroke-linecap="round" stroke-linejoin="round"/>
    <path d="M4.66947 10.405C2.0222 9.90296 0.287782 7.34697 0.789851 4.6997C1.29192 2.05243 3.84791 0.31801 6.49518 0.820078C9.14245 1.32215 10.8769 3.87813 10.3748 6.52541" stroke="#F34E7A" stroke-width="1.40648" stroke-miterlimit="10" stroke-linecap="round" stroke-linejoin="round"/>
  </g>
  <!-- Mascot face -->
  <g transform="translate(12.778, 19.515)">
    <path d="M22.8856 8.3255C20.5122 12.342 15.8566 14.9437 10.699 14.6698C6.54554 14.4416 2.93977 12.4333 0.703282 9.46656" stroke="#F34E7A" stroke-width="1.40648" stroke-miterlimit="10" stroke-linecap="round"/>
    <path d="M5.58704 7.54958C4.53726 7.54958 3.67005 6.68237 3.67005 5.63259V2.89403C3.67005 1.84425 4.53726 0.977039 5.58704 0.977039C6.63682 0.977039 7.50403 1.84425 7.50403 2.89403V5.63259" stroke="#F34E7A" stroke-width="1.40648" stroke-miterlimit="10" stroke-linecap="round"/>
    <path d="M17.1346 7.27578C18.1844 7.27578 19.0516 6.40857 19.0516 5.35879V2.62023C19.0516 1.57045 18.1844 0.703242 17.1346 0.703242C16.0848 0.703242 15.2176 1.57045 15.2176 2.62023V5.35879" stroke="#F34E7A" stroke-width="1.40648" stroke-miterlimit="10" stroke-linecap="round"/>
    <path d="M9.69486 10.3338L11.3836 8.64502" stroke="#F34E7A" stroke-width="1.40648" stroke-miterlimit="10" stroke-linecap="round"/>
    <path d="M13.0268 10.3338L11.3837 8.64502" stroke="#F34E7A" stroke-width="1.40648" stroke-miterlimit="10" stroke-linecap="round"/>
    <path d="M5.58704 4.53718C6.49452 4.53718 7.23017 3.80153 7.23017 2.89405C7.23017 1.98657 6.49452 1.25092 5.58704 1.25092C4.67956 1.25092 3.9439 1.98657 3.9439 2.89405C3.9439 3.80153 4.67956 4.53718 5.58704 4.53718Z" stroke="#F34E7A" stroke-width="1.40648" stroke-miterlimit="10" stroke-linecap="round"/>
    <path d="M17.1346 3.98951C18.0421 3.98951 18.7778 3.25385 18.7778 2.34638C18.7778 1.4389 18.0421 0.703242 17.1346 0.703242C16.2271 0.703242 15.4915 1.4389 15.4915 2.34638C15.4915 3.25385 16.2271 3.98951 17.1346 3.98951Z" stroke="#F34E7A" stroke-width="1.40648" stroke-miterlimit="10" stroke-linecap="round"/>
  </g>
  <!-- Text "animora" -->
  <g transform="translate(53.185, 2.217)">
    <path d="M10.5572 13.0576C10.4461 11.0295 9.5293 9.83491 7.41786 9.83491C6.83443 9.83491 6.33435 9.91826 5.91761 10.0849C4.63963 10.6684 4.16733 11.7519 4.16733 13.0854C4.16733 13.5299 4.2229 13.9467 4.36181 14.3078C4.77854 15.7525 6.02874 16.2804 7.41786 16.2804C9.5293 16.2804 10.5572 15.1413 10.5572 13.0576ZM15.8359 20.0032H11.6685C11.3907 19.3086 11.1407 18.6141 10.974 17.8918C10.0294 19.4476 8.58471 20.1421 6.80665 20.1421C2.83379 20.1421 -7.782e-08 16.8082 -7.782e-08 13.0021C-7.782e-08 8.61249 3.2783 5.97318 7.41786 5.97318C11.8352 5.97318 14.6135 8.80697 14.7246 13.0576C14.7524 13.4188 14.7524 13.8355 14.7524 14.3356C14.7524 16.2804 15.058 18.2251 15.8359 20.0032ZM32.2253 13.0576V20.0032H28.058V13.0576C28.058 11.1407 27.1689 9.83491 25.1408 9.83491C23.1405 9.83491 22.2237 11.1685 22.2237 13.0576V20.0032H18.0564V13.0576C18.0564 8.77918 21.0013 5.97318 25.1408 5.97318C29.4471 5.97318 32.2253 8.91809 32.2253 13.0576ZM35.1959 6.11209H39.3632V20.0032H35.1959V6.11209ZM37.2796 4.80633C35.8627 4.80633 34.8625 3.80617 34.8625 2.38927C34.8625 0.944596 35.8627 0 37.2796 0C38.7243 0 39.6689 0.944596 39.6689 2.38927C39.6689 3.86173 38.752 4.80633 37.2796 4.80633ZM65.0597 12.502V20.0032H60.8924V12.502C60.8924 10.9184 60.1423 9.83491 58.4753 9.83491C56.8362 9.83491 56.0305 10.9462 56.0305 12.502V20.0032H51.8632V12.502C51.8632 10.9184 51.0575 9.83491 49.3906 9.83491C47.7514 9.83491 47.0013 10.9462 47.0013 12.502V20.0032H42.8339V12.502C42.8339 8.47358 45.5844 5.97318 49.4461 5.97318C51.4187 5.97318 52.9467 6.88999 53.9468 8.58471C54.947 6.88999 56.475 5.97318 58.4476 5.97318C62.4482 5.97318 65.0597 8.61249 65.0597 12.502ZM74.7259 16.2804C76.754 16.2804 77.9208 15.0857 77.9208 13.0576C77.9208 11.0295 76.754 9.83491 74.7259 9.83491C72.6978 9.83491 71.5309 11.0295 71.5309 13.0576C71.5309 15.0857 72.6978 16.2804 74.7259 16.2804ZM74.7259 20.1421C70.4474 20.1421 67.3636 17.3083 67.3636 13.0576C67.3636 8.66805 70.5585 5.97318 74.7259 5.97318C79.0321 5.97318 82.0882 8.80697 82.0882 13.0576C82.0882 17.4195 78.8654 20.1421 74.7259 20.1421ZM88.7816 13.0576V20.0032H84.6143V13.0854C84.6143 8.47358 88.0037 5.97318 92.2821 5.97318C92.4211 5.97318 92.6155 5.97318 92.81 6.00096C93.0045 6.02874 93.2267 6.08431 93.4212 6.11209V10.1405C93.2823 10.1127 93.1156 10.0849 92.9211 10.0572C92.7267 10.0294 92.56 10.0016 92.4211 10.0016C91.7265 10.0016 91.1709 10.0849 90.6986 10.2239C89.9207 10.5017 89.2261 11.0295 88.9761 11.863C88.8372 12.2242 88.7816 12.6409 88.7816 13.0576ZM105.532 13.0576C105.421 11.0295 104.504 9.83491 102.393 9.83491C101.809 9.83491 101.309 9.91826 100.893 10.0849C99.6146 10.6684 99.1423 11.7519 99.1423 13.0854C99.1423 13.5299 99.1978 13.9467 99.3367 14.3078C99.7535 15.7525 101.004 16.2804 102.393 16.2804C104.504 16.2804 105.532 15.1413 105.532 13.0576ZM110.811 20.0032H106.643C106.366 19.3086 106.116 18.6141 105.949 17.8918C105.004 19.4476 103.56 20.1421 101.782 20.1421C97.8087 20.1421 94.9749 16.8082 94.9749 13.0021C94.9749 8.61249 98.2532 5.97318 102.393 5.97318C106.81 5.97318 109.588 8.80697 109.7 13.0576C109.727 13.4188 109.727 13.8355 109.727 14.3356C109.727 16.2804 110.033 18.2251 110.811 20.0032Z" fill="#F34E7A"/>
  </g>
  <!-- Slogan "YOUR STORY STARTS HERE." -->
  <g transform="translate(53.185, 31.028)">
    <path d="M3.64949 0.0582064L2.26711 2.24965V4.26356H1.39111V2.27002L0 0.0582067H0.966214L1.82475 1.49007L2.68619 0.058207L3.64949 0.0582064ZM6.53286 4.32177C5.29599 4.32177 4.38216 3.47779 4.38216 2.15943C4.38216 0.838162 5.29599 9.3384e-07 6.53286 9.3384e-07C7.76682 9.3384e-07 8.68064 0.838162 8.68064 2.15943C8.68064 3.47779 7.76682 4.32177 6.53286 4.32177ZM6.53286 3.52144C7.25752 3.52144 7.81338 3.01214 7.81338 2.15943C7.81338 1.30963 7.25752 0.803239 6.53286 0.803239C5.8082 0.803239 5.25233 1.30963 5.25233 2.15943C5.25233 3.01214 5.8082 3.52144 6.53286 3.52144ZM11.4709 4.32177C10.5483 4.32177 9.82657 3.8503 9.82657 2.79096V0.0582064H10.6997V2.67164C10.6997 3.3119 11.0402 3.55054 11.4709 3.55054C11.9045 3.55054 12.2479 3.30899 12.2479 2.67164V0.0582064H13.121V2.79096C13.121 3.8503 12.3963 4.32177 11.4709 4.32177ZM16.7727 4.26356L15.6784 2.41262H15.4252V4.26356H14.5521V0.0582067H16.0771C17.0288 0.0582067 17.4304 0.619891 17.4304 1.31545C17.4304 1.88004 17.1103 2.24674 16.5399 2.36897L17.8058 4.26356L16.7727 4.26356ZM15.4252 0.782867V1.78691H15.9403C16.406 1.78691 16.5952 1.58901 16.5952 1.28635C16.5952 0.986587 16.406 0.782867 15.9403 0.782867L15.4252 0.782867ZM22.2513 4.32177C21.3491 4.32177 20.6448 3.88814 20.5168 3.09945L21.4189 2.89282C21.4772 3.36429 21.8235 3.60875 22.2862 3.60875C22.6413 3.60875 22.9236 3.4516 22.9207 3.09654C22.9177 2.70074 22.4521 2.5756 21.9399 2.41845C21.3229 2.22637 20.6623 1.99936 20.6623 1.22523C20.6623 0.442364 21.3025 1.21805e-06 22.1465 1.21805e-06C22.8857 1.21805e-06 23.6308 0.29976 23.7996 1.10591L22.9556 1.31545C22.877 0.896368 22.5947 0.713021 22.1989 0.713021C21.8468 0.713021 21.547 0.858535 21.547 1.20486C21.547 1.5279 21.9603 1.63558 22.4375 1.77818C23.072 1.97026 23.8228 2.21473 23.8228 3.05289C23.8228 3.94634 23.0749 4.32177 22.2513 4.32177ZM27.4978 0.0582064V0.826521H26.4996V4.26356H25.6352V0.826521H24.6312V0.0582064H27.4978ZM30.451 4.32177C29.2141 4.32177 28.3003 3.47779 28.3003 2.15943C28.3003 0.838162 29.2141 9.3384e-07 30.451 9.3384e-07C31.685 9.3384e-07 32.5988 0.838162 32.5988 2.15943C32.5988 3.47779 31.685 4.32177 30.451 4.32177ZM30.451 3.52144C31.1757 3.52144 31.7315 3.01214 31.7315 2.15943C31.7315 1.30963 31.1757 0.803239 30.451 0.803239C29.7263 0.803239 29.1705 1.30963 29.1705 2.15943C29.1705 3.01214 29.7263 3.52144 30.451 3.52144ZM36.0526 4.26356L34.9583 2.41262H34.7051V4.26356H33.832V0.0582067H35.357C36.3087 0.0582067 36.7103 0.619891 36.7103 1.31545C36.7103 1.88004 36.3902 2.24674 35.8198 2.36897L37.0857 4.26356L36.0526 4.26356ZM34.7051 0.782867V1.78691H35.2202C35.6859 1.78691 35.875 1.58901 35.875 1.28635C35.875 0.986587 35.6859 0.782867 35.2202 0.782867L34.7051 0.782867ZM41.3107 0.0582064L39.9283 2.24965V4.26356H39.0523V2.27002L37.6612 0.0582067H38.6274L39.486 1.49007L40.3474 0.058207L41.3107 0.0582064ZM45.7067 4.32177C44.8045 4.32177 44.1002 3.88814 43.9722 3.09945L44.8744 2.89282C44.9326 3.36429 45.2789 3.60875 45.7416 3.60875C46.0967 3.60875 46.379 3.4516 46.3761 3.09654C46.3732 2.70074 45.9075 2.5756 45.3953 2.41845C44.7783 2.22637 44.1177 1.99936 44.1177 1.22523C44.1177 0.442364 44.758 1.21805e-06 45.6019 1.21805e-06C46.3411 1.21805e-06 47.0862 0.29976 47.255 1.10591L46.411 1.31545C46.3324 0.896368 46.0501 0.713021 45.6543 0.713021C45.3022 0.713021 45.0024 0.858535 45.0024 1.20486C45.0024 1.5279 45.4157 1.63558 45.893 1.77818C46.5274 1.97026 47.2783 2.21473 47.2783 3.05289C47.2783 3.94634 46.5303 4.32177 45.7067 4.32177ZM50.9532 0.0582064V0.826521H49.955V4.26356H49.0906V0.826521H48.0866V0.0582064H50.9532ZM54.8581 4.26356L54.5525 3.3963H52.786L52.4804 4.26356H51.5869L53.1352 0.0582064H54.2033L55.7515 4.26356H54.8581ZM53.0421 2.66582H54.2964L53.6707 0.881816L53.0421 2.66582ZM59.0336 4.26356L57.9394 2.41262H57.6862V4.26356H56.8131V0.0582067H58.3381C59.2897 0.0582067 59.6913 0.619891 59.6913 1.31545C59.6913 1.88004 59.3712 2.24674 58.8008 2.36897L60.0668 4.26356L59.0336 4.26356ZM57.6862 0.782867V1.78691H58.2013C58.6669 1.78691 58.8561 1.58901 58.8561 1.28635C58.8561 0.986587 58.6669 0.782867 58.2013 0.782867L57.6862 0.782867ZM63.5758 0.0582064V0.826521H62.5776V4.26356H61.7133V0.826521H60.7092V0.0582064H63.5758ZM66.0634 4.32177C65.1612 4.32177 64.4569 3.88814 64.3289 3.09945L65.2311 2.89282C65.2893 3.36429 65.6356 3.60875 66.0983 3.60875C66.4534 3.60875 66.7357 3.4516 66.7328 3.09654C66.7299 2.70074 66.2642 2.5756 65.752 2.41845C65.135 2.22637 64.4744 1.99936 64.4744 1.22523C64.4744 0.442364 65.1147 1.21805e-06 65.9586 1.21805e-06C66.6978 1.21805e-06 67.4429 0.29976 67.6117 1.10591L66.7677 1.31545C66.6891 0.896368 66.4068 0.713021 66.011 0.713021C65.6589 0.713021 65.3591 0.858535 65.3591 1.20486C65.3591 1.5279 65.7724 1.63558 66.2497 1.77818C66.8841 1.97026 67.635 2.21473 67.635 3.05289C67.635 3.94634 66.887 4.32177 66.0634 4.32177ZM73.5006 0.0582064H74.3737V4.26356H73.5006V2.53486H71.7224V4.26356H70.8494V0.0582064H71.7224V1.77527H73.5006V0.0582064ZM78.331 0.826521H76.7711V1.78109H78.1534V2.54068H76.7711V3.49234H78.331V4.26356H75.8922V0.0582064H78.331V0.826521ZM81.8808 4.26356L80.7865 2.41262H80.5333V4.26356H79.6602V0.0582067H81.1852C82.1369 0.0582067 82.5385 0.619891 82.5385 1.31545C82.5385 1.88004 82.2184 2.24674 81.648 2.36897L82.9139 4.26356L81.8808 4.26356ZM80.5333 0.782867V1.78691H81.0484C81.5141 1.78691 81.7033 1.58901 81.7033 1.28635C81.7033 0.986587 81.5141 0.782867 81.0484 0.782867L80.5333 0.782867ZM86.423 0.826521H84.8631V1.78109H86.2455V2.54068H84.8631V3.49234H86.423V4.26356H83.9842V0.0582064H86.423V0.826521ZM88.1655 4.32177C87.9065 4.32177 87.6883 4.10641 87.6883 3.84448C87.6883 3.58256 87.9065 3.36138 88.1655 3.36138C88.4304 3.36138 88.6486 3.58256 88.6486 3.84448C88.6486 4.10641 88.4304 4.32177 88.1655 4.32177Z" fill="#2E94C3"/>
  </g>
</svg>
