<svg width="137" height="115" viewBox="0 0 137 115" fill="none" xmlns="http://www.w3.org/2000/svg">
<path d="M91.9895 18.7336C91.1505 10.4833 97.1635 3.07196 105.414 2.23295C113.664 1.39393 120.936 7.40689 121.775 15.6572C122.614 23.9076 116.601 31.179 108.35 32.0181" stroke="#F34E7A" stroke-width="4.30907" stroke-miterlimit="10" stroke-linecap="round" stroke-linejoin="round"/>
<path d="M29.9023 31.8781C21.7918 30.3399 16.478 22.5091 18.0162 14.3986C19.5544 6.28807 27.3853 0.974292 35.4958 2.51249C43.6063 4.05069 48.92 11.8815 47.3818 19.992" stroke="#F34E7A" stroke-width="4.30907" stroke-miterlimit="10" stroke-linecap="round" stroke-linejoin="round"/>
<path d="M106.393 85.4354C99.1213 97.7409 84.858 105.712 69.0565 104.873C56.3314 104.173 45.2843 98.0206 38.4324 88.9313" stroke="#F34E7A" stroke-width="4.30907" stroke-miterlimit="10" stroke-linecap="round"/>
<path d="M53.3949 83.0582C50.1786 83.0582 47.5217 80.4013 47.5217 77.185V68.7949C47.5217 65.5786 50.1786 62.9217 53.3949 62.9217C56.6111 62.9217 59.268 65.5786 59.268 68.7949V77.185" stroke="#F34E7A" stroke-width="4.30907" stroke-miterlimit="10" stroke-linecap="round"/>
<path d="M88.7734 82.2193C91.9896 82.2193 94.6465 79.5624 94.6465 76.3462V67.956C94.6465 64.7398 91.9896 62.0829 88.7734 62.0829C85.5572 62.0829 82.9003 64.7398 82.9003 67.956V76.3462" stroke="#F34E7A" stroke-width="4.30907" stroke-miterlimit="10" stroke-linecap="round"/>
<path d="M65.9801 91.5882L71.154 86.4143" stroke="#F34E7A" stroke-width="4.30907" stroke-miterlimit="10" stroke-linecap="round"/>
<path d="M76.1882 91.5882L71.1541 86.4143" stroke="#F34E7A" stroke-width="4.30907" stroke-miterlimit="10" stroke-linecap="round"/>
<path d="M53.3948 73.829C56.1751 73.829 58.4289 71.5752 58.4289 68.7949C58.4289 66.0147 56.1751 63.7608 53.3948 63.7608C50.6146 63.7608 48.3607 66.0147 48.3607 68.7949C48.3607 71.5752 50.6146 73.829 53.3948 73.829Z" stroke="#F34E7A" stroke-width="4.30907" stroke-miterlimit="10" stroke-linecap="round"/>
<path d="M88.7734 72.1511C91.5536 72.1511 93.8075 69.8973 93.8075 67.117C93.8075 64.3367 91.5536 62.0829 88.7734 62.0829C85.9931 62.0829 83.7393 64.3367 83.7393 67.117C83.7393 69.8973 85.9931 72.1511 88.7734 72.1511Z" stroke="#F34E7A" stroke-width="4.30907" stroke-miterlimit="10" stroke-linecap="round"/>
<path d="M54.3737 34.9547C55.6322 46.2814 64.1622 55.3708 75.6288 56.3496C73.2516 52.0147 74.7898 46.5611 77.4466 42.7855C78.4255 45.5822 80.2434 48.0993 82.3409 49.9172C84.5783 51.8749 87.0953 53.1334 90.0319 53.8326C91.7099 54.2521 94.3668 53.8326 95.6253 54.8114C96.4644 55.5106 97.1635 57.0488 97.8627 58.0277C99.1213 59.8455 100.1 61.8032 101.079 63.9008C103.736 69.4942 105.554 75.5072 106.253 81.66C107.232 91.029 105.134 100.538 100.52 108.788C111.707 103.195 116.461 88.9315 117.3 77.4649C117.859 69.0747 116.741 60.6845 114.783 52.4342C120.097 55.9301 128.767 53.9724 134.36 52.4342C129.606 51.4554 124.991 49.4976 120.936 47.1204C116.88 44.7432 113.245 41.8067 110.168 38.3108C108.49 36.353 106.952 34.2555 105.694 32.158C105.134 31.0393 104.715 29.9206 103.876 28.8019C101.219 25.0263 96.744 21.9499 92.6888 19.8524C84.2986 15.2378 74.6499 13.9793 65.2809 15.6573C62.4842 16.2166 59.6874 17.0556 56.8907 17.615C55.0729 18.0345 53.255 18.454 51.2973 19.0134C45.0046 20.9711 38.8519 23.9076 33.8177 28.3824C30.7414 31.0393 28.0845 34.2555 26.2666 37.8912C25.2877 39.8489 24.4487 41.8067 23.7495 43.9042C23.0504 46.0017 23.0504 48.379 22.3512 50.4765C21.5122 52.8537 19.4146 55.2309 17.8764 57.1886C14.2407 61.2439 9.90576 64.1805 4.73182 65.9983C3.61313 66.4178 0.816408 67.2568 2.91395 68.3755C5.15133 69.4942 8.78707 69.2146 11.1643 69.0747C16.4781 68.9349 27.2454 68.2357 29.6227 62.0829C24.0292 79.1429 26.5463 100.118 40.2502 112.564C37.1738 94.2452 37.873 74.1088 43.1868 56.3496C44.1656 53.1334 44.8648 49.9172 45.564 46.5611C46.9623 50.7562 50.5981 54.2521 54.3737 56.2098C53.9542 52.1545 53.3948 48.0993 52.9753 44.044C52.6956 42.2262 52.5558 40.9676 53.1151 39.1498C53.5347 37.7514 53.9542 36.353 54.3737 34.9547Z" stroke="#F34E7A" stroke-width="4.30907" stroke-miterlimit="10" stroke-linecap="round" stroke-linejoin="round"/>
</svg>
